HIERARCHY
ROOT Hips
{
  OFFSET 265.287 66.7526 -254.649
  CHANNELS 6 Xposition Yposition Zposition Zrotation Xrotation Yrotation
  JOINT LeftUpLeg
  {
    OFFSET 8.64259 1.95398 -2.38835
    CHANNELS 3 Zrotation Xrotation Yrotation
    JOINT LeftLeg
    {
      OFFSET 43.7702 0 0
      CHANNELS 3 Zrotation Xrotation Yrotation
      JOINT LeftFoot
      {
        OFFSET 40.6238 0 0
        CHANNELS 3 Zrotation Xrotation Yrotation
        JOINT LeftToeBase
        {
          OFFSET 12.7242 0 0
          CHANNELS 3 Zrotation Xrotation Yrotation
          End Site
          {
            OFFSET 0 0 0
          }
        }
      }
    }
  }
  JOINT RightUpLeg
  {
    OFFSET -8.2249 1.95398 -2.59336
    CHANNELS 3 Zrotation Xrotation Yrotation
    JOINT RightLeg
    {
      OFFSET 43.5653 0 0
      CHANNELS 3 Zrotation Xrotation Yrotation
      JOINT RightFoot
      {
        OFFSET 40.6238 0 0
        CHANNELS 3 Zrotation Xrotation Yrotation
        JOINT RightToeBase
        {
          OFFSET 12.7242 0 0
          CHANNELS 3 Zrotation Xrotation Yrotation
          End Site
          {
            OFFSET 0 0 0
          }
        }
      }
    }
  }
  JOINT Spine
  {
    OFFSET 0.165834 0.87714 6.61349
    CHANNELS 3 Zrotation Xrotation Yrotation
    JOINT Spine1
    {
      OFFSET 7.38963 1.71661e-005 0
      CHANNELS 3 Zrotation Xrotation Yrotation
      JOINT Spine2
      {
        OFFSET 11.9445 1.14441e-005 0
        CHANNELS 3 Zrotation Xrotation Yrotation
        JOINT Spine3
        {
          OFFSET 14.7254 4.19617e-005 0
          CHANNELS 3 Zrotation Xrotation Yrotation
          JOINT Spine4
          {
            OFFSET 10.9679 0 0
            CHANNELS 3 Zrotation Xrotation Yrotation
            JOINT RightShoulder
            {
              OFFSET 2.46616 -1.6653 3.69651
              CHANNELS 3 Zrotation Xrotation Yrotation
              JOINT RightArm
              {
                OFFSET 13.0012 0 0
                CHANNELS 3 Zrotation Xrotation Yrotation
                JOINT RightForeArm
                {
                  OFFSET 28.7848 1.52588e-005 0
                  CHANNELS 3 Zrotation Xrotation Yrotation
                  JOINT RightHand
                  {
                    OFFSET 26.5688 1.52588e-005 0
                    CHANNELS 3 Zrotation Xrotation Yrotation
                    End Site
                    {
                      OFFSET 0 0 0
                    }
                  }
                }
              }
            }
            JOINT LeftShoulder
            {
              OFFSET 2.38034 -1.29275 -3.7523
              CHANNELS 3 Zrotation Xrotation Yrotation
              JOINT LeftArm
              {
                OFFSET 16.3182 6.10351e-005 0
                CHANNELS 3 Zrotation Xrotation Yrotation
                JOINT LeftForeArm
                {
                  OFFSET 27.0901 0 0
                  CHANNELS 3 Zrotation Xrotation Yrotation
                  JOINT LeftHand
                  {
                    OFFSET 24.5451 1.52588e-005 0
                    CHANNELS 3 Zrotation Xrotation Yrotation
                    End Site
                    {
                      OFFSET 0 0 0
                    }
                  }
                }
              }
            }
            JOINT Neck
            {
              OFFSET 5.0226 -0.0266342 0
              CHANNELS 3 Zrotation Xrotation Yrotation
              JOINT Head
              {
                OFFSET 6.69364 2.86102e-005 0
                CHANNELS 3 Zrotation Xrotation Yrotation
                End Site
                {
                  OFFSET 0 0 0
                }
              }
            }
          }
        }
      }
    }
  }
}
MOTION
Frames:	15
Frame Time:	0.0416667
48.1581 96.3099 -61.0403 130.695 -82.8677 131.091 178.739 17.684 91.5969 -13.7483 15.7319 4.18069 48.222 -1.1273 7.60925 45.5548 -4.96734 4.47769 175.801 0.257664 92.112 -27.6679 -5.75061 0.197766 67.7523 1.66452 15.4449 33.3919 -0.696835 0.383357 0.0476058 7.69928 -90.4833 11.4738 -0.131087 -0.949424 -0.197515 -0.172742 -0.942763 -22.7299 0.160302 -0.944939 -2.71728 0.160299 -0.944943 102.201 -49.6251 -82.1102 27.6779 -4.00687 -5.96629 -7.62378 -17.1638 -28.9847 -10.2109 -0.450481 -0.0516178 -82.1696 -51.5097 90.4192 -32.6233 5.94025 2.59748 12.639 33.6435 -16.8896 -5.94375 -0.170945 -1.79049 1.00755 -7.31709 -4.13005 -9.84145 -6.57022 -1.23641 
48.3921 95.7079 -53.3367 -162.402 -85.3784 -160.557 179.529 19.4754 92.4081 -11.5778 29.2708 9.42786 56.0612 -0.429029 3.30172 47.2543 -5.40915 4.61628 176.442 -3.40098 92.4038 -28.6662 -11.6909 -1.05305 66.3991 0.694016 14.2254 39.6483 -1.61659 2.5766 0.314634 7.77353 -90.5774 11.3273 0.35705 -1.18501 -0.344112 0.304563 -1.19958 -22.8762 0.696663 -1.02295 -2.86355 0.696671 -1.02295 102.124 -49.1375 -82.2309 27.4795 -4.90823 -6.70455 -7.60972 -15.946 -30.7498 -11.1878 -0.407335 -0.94523 -81.9987 -52.2741 90.7288 -31.9166 5.46151 4.42007 12.8793 32.4663 -17.8445 -8.90433 -0.233725 -1.85146 -0.1928 -8.6653 -2.91591 -10.5769 -7.95052 -4.09405 
49.0693 94.6333 -44.5519 -119.673 -79.881 -118.288 178.704 17.7485 93.0088 -16.3496 28.7001 9.51452 51.9541 -1.51467 4.84985 48.7401 -5.7866 4.90902 177.139 -5.3918 90.3947 -34.0777 -17.8585 -4.11169 61.9551 1.84339 15.0989 50.0298 -2.75983 3.87182 0.39572 7.85264 -90.3668 11.1691 0.617146 -0.792065 -0.501976 0.581696 -0.818465 -23.0371 0.826663 -0.569975 -3.02445 0.826663 -0.569974 101.773 -49.5732 -82.7808 27.7224 -5.01018 -5.91853 -7.52553 -17.1299 -29.6361 -11.9367 -0.414 -1.07643 -81.6167 -52.8216 91.3302 -29.9781 5.6756 3.89182 11.7635 31.2334 -16.6525 -6.11732 -0.161905 -2.33521 -2.88772 -9.47681 -2.16941 -9.6902 -8.81375 -6.82619 
49.1604 93.5396 -36.2256 -116.037 -75.7886 -117.771 -179.969 17.6518 90.3024 -27.6013 26.6201 7.02962 52.6353 -1.53049 8.47998 45.2764 -4.96276 2.52043 175.958 -1.84597 84.7554 -48.2946 -16.9726 -4.96674 51.262 5.36672 16.2619 40.927 -1.82041 5.506 0.0449997 7.99808 -89.7872 10.8807 0.187964 0.407724 -0.790242 0.20573 0.399047 -23.3252 0.0567365 0.445366 -3.31255 0.0567398 0.445362 102.061 -50.0289 -82.3288 30.3018 -3.65241 -4.31919 -5.76385 -18.0041 -24.7383 -13.6711 -0.763034 1.24474 -82.7123 -52.0932 89.659 -27.593 6.42551 -1.00018 10.0948 33.4736 -13.5426 -5.43365 -0.185162 -0.945259 -5.38358 -11.4483 -1.61001 -10.7177 -10.5845 -11.2653 
48.7493 93.7453 -29.7004 -108.948 -69.1271 -111.694 -176.374 13.7092 89.9026 -30.6318 22.6838 4.33148 58.1173 0.594369 12.1158 44.4702 -4.81136 0.756124 176.734 10.3822 83.9302 -67.3867 -12.0389 -4.53756 45.3495 6.82221 12.2757 36.5023 -0.861988 -5.5543 -0.235486 8.16596 -89.484 10.5419 -0.231916 1.04622 -1.12947 -0.185654 1.0554 -23.662 -0.535618 0.928168 -3.64935 -0.535634 0.928163 101.867 -49.9274 -82.6314 32.6107 -3.53782 -5.61046 -4.22787 -21.3664 -18.5989 -11.462 -0.795849 2.99284 -83.3362 -51.1828 88.6499 -23.7915 6.05507 -9.51444 7.27696 31.1047 -8.6311 -4.44167 -0.170983 0.0821024 -5.67605 -11.3336 -1.25136 -10.7646 -10.5548 -10.4776 
47.3723 94.598 -23.6764 -103.022 -64.8346 -103.117 -174.215 10.5872 92.571 -31.2608 19.2064 3.95555 61.9297 2.0084 12.2402 44.5112 -4.81075 1.11684 173.341 19.5606 88.7898 -68.4214 -13.1753 -1.42911 50.0667 5.40392 16.4064 35.7005 -1.01118 0.0384896 -0.70329 8.12992 -89.7689 10.6167 -1.29437 0.57672 -1.05379 -1.26773 0.633121 -23.5938 -1.40784 0.160983 -3.58117 -1.40784 0.160977 101.597 -50.3765 -83.0485 32.8116 -3.96253 -3.71019 -5.9138 -23.4916 -20.2259 -6.06142 -0.319221 1.17843 -83.3502 -49.4864 88.4619 -20.9595 6.01547 -17.181 7.12775 25.9459 -8.67551 4.00595 0.264549 2.19618 -5.88214 -10.2228 -1.36233 -9.66794 -9.66019 -8.1301 
45.5309 95.3095 -18.2591 -98.5271 -59.9346 -98.3744 -172.551 5.68769 94.0553 -28.3206 16.1584 2.72218 62.9394 2.30606 12.3651 45.7763 -5.12944 2.3156 169.397 23.0228 90.984 -53.1869 -10.7661 2.69084 54.8995 4.33767 19.2616 38.8821 -1.46881 3.45911 -1.0434 7.99554 -89.8035 10.8889 -1.98655 0.57777 -0.780655 -1.95918 0.664662 -23.3281 -2.06831 -0.046243 -3.3155 -2.06829 -0.0462296 102.049 -50.7539 -82.3467 33.997 -4.10911 -0.841424 -6.68465 -24.3999 -22.2425 -8.63058 -0.531111 2.00027 -82.9918 -48.6638 88.9306 -15.9093 5.4331 -23.4362 7.53362 19.6138 -12.3106 6.4625 0.390696 1.83147 -5.15777 -9.35672 -1.19763 -10.5955 -8.65474 -9.32868 
43.2089 95.9854 -13.1357 -94.6118 -53.099 -96.0256 -172.039 -0.483176 90.1735 -21.6282 10.9833 1.50279 60.9296 1.3247 11.378 48.0198 -5.59625 4.90988 170.168 19.7969 91.2849 -24.3371 -0.202766 5.69492 54.8187 4.45401 15.2375 43.5118 -2.06314 4.24267 -0.951621 7.79265 -89.7738 11.2945 -1.78839 0.628066 -0.375454 -1.75901 0.706183 -22.9204 -1.89444 0.0613633 -2.90776 -1.89445 0.0613617 101.972 -50.4029 -82.4657 35.3606 -2.38311 1.20126 -5.96447 -23.8417 -20.3029 -9.02449 -0.601447 2.71443 -82.2355 -49.1499 90.1344 -11.4402 4.30791 -28.8237 8.98981 15.2537 -18.9432 5.86825 0.254086 0.429858 -3.47117 -8.31906 0.0433696 -11.1647 -7.74774 -8.22037 
39.8175 96.0984 -8.31862 -90.9022 -47.8083 -95.3218 -172.312 -5.46785 89.4218 -16.2401 8.74545 0.289031 56.5259 0.0854439 8.06274 53.7981 -6.6862 8.38687 177.931 19.859 89.9657 -6.91702 17.8576 0.273567 57.1166 6.20962 16.5465 41.5533 -1.84474 1.67932 -0.859059 7.48745 -89.7251 11.9046 -1.5787 0.717985 0.234371 -1.54558 0.786782 -22.3082 -1.72147 0.210209 -2.29559 -1.72148 0.210215 101.627 -50.1087 -83.004 35.629 -0.374788 1.77462 -4.98838 -26.2795 -15.8081 -7.55372 -0.512808 2.90676 -82.2209 -49.1585 90.1578 -10.7239 3.73389 -30.4769 11.7959 12.7109 -27.8168 7.20058 0.251838 -0.282972 -1.7634 -7.30309 1.65485 -10.6066 -7.02074 -7.20114 
35.1952 95.2373 -2.79334 -91.3238 -45.6512 -96.2017 -172.861 -6.91048 89.4668 -22.6696 9.35742 0.512825 52.3463 -1.3984 3.84616 62.475 -8.18009 11.1606 176.104 20.9564 88.7584 -13.3723 17.4879 1.48699 57.2261 6.71495 16.4589 38.7459 -1.4045 0.618371 -0.8956 7.53163 -90.0025 11.8189 -1.78236 0.182138 0.14919 -1.77263 0.260425 -22.3961 -1.75466 -0.36213 -2.38343 -1.75465 -0.362125 101.479 -49.966 -83.2362 34.6748 1.48291 0.729861 -3.39255 -26.5791 -11.0968 -7.5293 -0.517354 2.99566 -82.1173 -50.7445 90.4401 -10.6611 6.35863 -30.0812 14.9927 12.5295 -36.3297 8.72634 0.236205 -1.02068 0.781471 -6.79853 2.73652 -10.6726 -6.73573 -6.36742 
28.9384 94.6409 2.38819 -92.2601 -41.9045 -94.9442 -172.207 -1.47179 89.5305 -38.1915 6.42882 0.941491 40.5415 -4.77371 -1.11704 62.1699 -8.9831 5.2923 173.789 21.4599 90.7152 -26.0515 10.9559 4.03209 61.8216 6.23157 12.952 27.339 0.61308 -3.3117 -0.568702 7.52078 -90.622 11.8219 -1.4233 -1.08608 0.151251 -1.46973 -1.02239 -22.3835 -1.03114 -1.46361 -2.37083 -1.03112 -1.4636 101.504 -49.3894 -83.2042 32.9039 2.41635 1.35398 -3.55439 -24.3738 -11.7804 -9.48924 -0.762432 4.33808 -81.9824 -51.7902 90.7188 -14.0923 12.5414 -25.7858 21.7469 18.379 -42.0923 3.91844 0.0537582 -1.73893 -0.127664 -7.09113 2.47294 -10.7158 -7.08878 -4.75911 
22.577 94.066 6.36312 -93.7257 -36.6538 -94.5382 -174.707 8.81673 93.2672 -58.5215 5.06298 1.60466 42.3868 -3.63835 2.91328 53.2203 -7.5602 -0.0190108 173.309 18.9249 92.6403 -33.8408 6.27031 4.61897 68.2783 3.76568 11.3273 27.3672 0.513458 -2.36691 -0.33084 7.67638 -90.8519 11.5103 -1.05651 -1.59151 -0.161135 -1.12554 -1.54349 -22.6896 -0.529442 -1.83538 -2.67697 -0.52946 -1.83539 101.892 -50.2249 -82.5909 30.7321 2.04107 -2.01381 -4.15009 -21.9404 -14.139 -11.0332 -0.872581 4.16145 -82.2785 -52.5267 90.3365 -17.3812 16.6438 -18.7091 22.0043 20.4909 -42.1144 -1.72495 -0.0784683 -3.41703 -0.83986 -6.94886 -0.562452 -10.3604 -6.60936 -3.58167 
15.9866 94.4392 9.35494 -95.3978 -28.4079 -96.71 -178.309 15.8901 89.0307 -61.7046 4.6274 2.10828 48.9356 -0.86405 8.64096 51.5573 -6.82831 1.85005 174.811 12.871 92.4107 -34.9796 1.93332 2.33322 72.1311 1.64775 12.0719 29.3932 0.0942691 -1.67319 -0.124275 7.93384 -90.5641 11.0025 -0.508733 -1.07367 -0.668725 -0.555488 -1.05025 -23.2005 -0.162549 -1.17691 -3.18781 -0.162549 -1.17691 101.876 -49.6366 -82.6188 30.6376 -1.46076 -7.13597 -4.07432 -18.0765 -18.7177 -13.6329 -1.00719 3.48386 -82.3072 -53.0917 90.3361 -21.3141 16.5317 -13.156 17.4051 26.7976 -31.7627 -2.58996 -0.0929498 -3.09047 -2.05319 -5.95149 -2.73033 -11.6473 -5.45215 -1.94736 
9.32316 95.0163 12.0602 -94.154 -19.156 -96.0987 178.479 19.9153 87.3174 -48.9144 5.15215 3.30402 55.6587 2.30238 11.7785 49.4506 -5.96894 4.84719 176.534 6.95856 92.3835 -31.9182 -1.91823 -0.0689468 74.3291 0.357894 14.9434 29.2766 -0.0103064 -0.620235 0.245399 7.84972 -90.3554 11.1745 0.32335 -0.73882 -0.496592 0.290512 -0.752336 -23.0309 0.530434 -0.607489 -3.01824 0.530433 -0.607489 101.708 -49.3821 -82.8851 30.4762 -5.30364 -9.79162 -5.80027 -16.3171 -26.7913 -12.424 -0.64048 0.849008 -82.441 -54.1743 90.2233 -25.4506 12.2842 -7.48403 12.529 34.6662 -19.8356 -5.3968 -0.181284 -0.927113 -2.37218 -4.40187 -2.98748 -12.5106 -4.05583 0.312449 
2.98821 95.1941 14.301 -92.9155 -12.2291 -95.0412 177.641 18.5742 87.122 -21.3179 14.1825 4.19637 52.6039 0.0614179 7.18085 46.1402 -5.08708 5.09411 177.192 2.17815 92.2881 -29.7698 -4.35861 -1.40117 74.3471 -0.391247 17.0412 27.8618 0.177859 -0.338355 0.37621 7.87885 -90.2663 11.1176 0.625322 -0.590322 -0.553362 0.598742 -0.617276 -23.0892 0.773835 -0.375089 -3.0766 0.773828 -0.375089 100.848 -49.366 -84.236 29.3801 -9.15764 -12.9097 -6.83956 -14.5459 -32.7748 -13.0049 -0.434962 -1.33638 -82.1478 -55.1204 90.7155 -28.6271 8.12649 -3.15232 9.69568 38.9407 -12.667 -8.23957 -0.268103 -0.731637 0.547823 -2.63351 -2.77868 -12.3321 -2.4019 2.50632 
